<svg xmlns="http://www.w3.org/2000/svg" viewBox="0 0 1607 459"><defs><style>.cls-1{fill:#fff;stroke:#000;stroke-miterlimit:10;stroke-width:3px;}.cls-2{font-size:30px;}.cls-2,.cls-4{font-family:ArialMT, Arial;}.cls-3{letter-spacing:-0.07em;}.cls-4{font-size:24px;}</style></defs><title>PlanE3</title><g id="Structure_E3" data-name="Structure E3"><rect id="AileGauche" class="cls-1" x="1.5" y="90.5" width="910" height="366"/><rect id="AileDroite" class="cls-1" x="911.5" y="1.5" width="693" height="455"/></g><g id="Classes_E3" data-name="Classes E3"><rect id="C311" class="cls-1" x="1.5" y="90.5" width="143" height="366"/><rect id="C313" class="cls-1" x="144.5" y="167.5" width="129.8" height="289"/><rect id="C315" class="cls-1" x="275.2" y="167.5" width="129.8" height="289"/><rect id="C321" class="cls-1" x="468.5" y="90.5" width="161" height="366"/><rect id="C323" class="cls-1" x="629.5" y="90.5" width="168" height="366"/><rect id="Escaliers1" class="cls-1" x="797.5" y="90.5" width="114" height="366"/><rect id="C332" class="cls-1" x="911.5" y="1.5" width="208.5" height="228"/><rect id="C331" class="cls-1" x="911.5" y="228.5" width="208.5" height="228"/><rect id="C333" class="cls-1" x="1119.5" y="2.5" width="196" height="455"/><rect id="C335" class="cls-1" x="1315.5" y="274.5" width="170.5" height="182"/><rect id="C336" class="cls-1" x="1315.5" y="1.5" width="170.5" height="182"/><rect id="Escaliers2" class="cls-1" x="1487.5" y="1.5" width="118" height="454"/></g><g id="Textes"><text class="cls-2" transform="translate(38.25 290)">C3<tspan class="cls-3" x="38.35" y="0">1</tspan><tspan x="52.81" y="0">1</tspan></text><text class="cls-2" transform="translate(173.14 290)">C313</text><text class="cls-2" transform="translate(304.14 290)">C315</text><text class="cls-2" transform="translate(519.14 290)">C321</text><text class="cls-2" transform="translate(680.14 290)">C323</text><text class="cls-2" transform="translate(980.14 100)">C332</text><text class="cls-2" transform="translate(980.14 343)">C331</text><text class="cls-2" transform="translate(1182.14 241)">C333</text><text class="cls-2" transform="translate(1365.14 100)">C336</text><text class="cls-2" transform="translate(1360.14 343)">C335</text><text class="cls-4" transform="translate(812.32 228)">Escalier</text><text class="cls-4" transform="translate(1504.32 220)">Escalier</text></g></svg>