<svg xmlns="http://www.w3.org/2000/svg" viewBox="0 0 1606.05 458.21"><defs><style>.cls-1{fill:#fff;stroke:#000;stroke-miterlimit:10;stroke-width:3px;}.cls-2{font-size:30px;font-family:ArialMT, Arial;}.cls-3{letter-spacing:-0.07em;}</style></defs><title>PlanE2</title><g id="Structure_E1" data-name="Structure E1"><rect id="AileGauche" class="cls-1" x="693.49" y="-0.54" width="910" height="366" transform="translate(2298.04 366.86) rotate(179.99)"/><rect id="AileDroite" class="cls-1" x="0.5" y="-0.44" width="693" height="455" transform="translate(695.06 456.18) rotate(179.99)"/></g><g id="Classes_E1" data-name="Classes E1"><rect id="Escaliers1" class="cls-1" x="0.51" y="182.5" width="101" height="272.1" transform="translate(103.1 639.2) rotate(179.99)"/><rect id="C237" class="cls-1" x="0.8" y="0.5" width="101" height="182" transform="translate(103.64 185.09) rotate(179.99)"/><rect id="C235" class="cls-1" x="101.7" y="0.5" width="204.8" height="182" transform="translate(409.25 185.09) rotate(179.99)"/><rect id="C233" class="cls-1" x="306.5" y="0.5" width="162" height="182" transform="translate(776.04 185.07) rotate(179.99)"/><rect id="C236" class="cls-1" x="101.81" y="218.5" width="245.69" height="236.02" transform="translate(450.39 675.09) rotate(179.99)"/><rect id="C234" class="cls-1" x="347.71" y="331.5" width="122.8" height="123.01" transform="translate(819.29 788.06) rotate(179.99)"/><polygon id="C232" class="cls-1" points="471.51 220.62 659.53 220.6 659.53 261.6 694.52 262.11 694.54 456.61 471.55 456.64 471.51 220.62"/><rect id="C231" class="cls-1" x="468.5" y="0.51" width="225.11" height="181.98" transform="translate(1163.16 185.04) rotate(179.99)"/><rect id="C227" class="cls-1" x="694.05" y="0.53" width="90.45" height="207.98" transform="translate(1479.59 211.04) rotate(179.99)"/><rect id="C225" class="cls-1" x="784.5" y="0.53" width="92" height="189.97" transform="translate(1662.04 193.03) rotate(179.99)"/><rect id="C223" class="cls-1" x="876.5" y="0.54" width="93" height="182.96" transform="translate(1847.04 186.03) rotate(179.99)"/><rect id="C221" class="cls-1" x="969.5" y="0.52" width="158" height="365" transform="translate(2098.05 368.01) rotate(179.99)"/><rect id="C215" class="cls-1" x="1127.5" y="0.53" width="135.16" height="153" transform="translate(2391.2 156.01) rotate(179.99)"/><rect id="C211" class="cls-1" x="1501.93" y="0.52" width="101" height="364.98" transform="translate(3105.92 367.92) rotate(179.99)"/><rect id="C213" class="cls-1" x="1262.5" y="0.49" width="239" height="182.01" transform="translate(2765.04 184.92) rotate(179.99)"/><rect id="C214" class="cls-1" x="1262.68" y="183.5" width="239" height="182" transform="translate(2765.42 550.93) rotate(179.99)"/><rect id="Escaliers2" class="cls-1" x="1127.5" y="153.51" width="135" height="212" transform="translate(2391.06 520.96) rotate(179.99)"/><rect id="C224" data-name="Escaliers2" class="cls-1" x="816.5" y="259.5" width="153" height="106.01" transform="translate(1787.07 627) rotate(179.99)"/></g><g id="Textes"><text class="cls-2" transform="translate(16.17 94.01) rotate(-0.01)">C237</text><text class="cls-2" transform="translate(169.17 93.18) rotate(-0.01)">C235</text><text class="cls-2" transform="translate(353.17 93.18) rotate(-0.01)">C233</text><text class="cls-2" transform="translate(541.17 93.18) rotate(-0.01)">C231</text><text class="cls-2" transform="translate(541.17 338.18) rotate(-0.01)">C232</text><text class="cls-2" transform="translate(374.17 408.18) rotate(-0.01)">C234</text><text class="cls-2" transform="translate(185.17 338.18) rotate(-0.01)">C236</text><text class="cls-2" transform="translate(704.17 97.18) rotate(-0.01)">C227</text><text class="cls-2" transform="translate(796.17 93.18) rotate(-0.01)">C225</text><text class="cls-2" transform="translate(888.17 93.18) rotate(-0.01)">C223</text><text class="cls-2" transform="translate(1014.17 185.18) rotate(-0.01)">C221</text><text class="cls-2" transform="translate(1160.17 93.18) rotate(-0.01)">C215</text><text class="cls-2" transform="translate(858.17 320.18) rotate(-0.01)">C224</text><text class="cls-2" transform="translate(1347.17 97.18) rotate(-0.01)">C213</text><text class="cls-2" transform="translate(1347.17 314.18) rotate(-0.01)">C214</text><text class="cls-2" transform="translate(1518.28 185.18) rotate(-0.01)">C2<tspan class="cls-3" x="38.35" y="0">1</tspan><tspan x="52.81" y="0">1</tspan></text></g></svg>
