<svg xmlns="http://www.w3.org/2000/svg" viewBox="0 0 1606 458"><defs><style>.cls-1{fill:#fff;stroke:#000;stroke-miterlimit:10;stroke-width:3px;}.cls-2{font-size:30px;}.cls-2,.cls-4{font-family:ArialMT, Arial;}.cls-3{letter-spacing:-0.07em;}.cls-4{font-size:24px;}</style></defs><title>PlanE1</title><g id="Structure_E1" data-name="Structure E1"><rect id="AileGauche" class="cls-1" x="1.5" y="90.5" width="910" height="366"/><rect id="AileDroite" class="cls-1" x="911.5" y="1.5" width="693" height="455"/></g><g id="Classes_E1" data-name="Classes E1"><rect id="C112" class="cls-1" x="1.5" y="90.5" width="286" height="183"/><rect id="C111" class="cls-1" x="1.5" y="273.5" width="286" height="183"/><rect id="Distributeur" class="cls-1" x="287.5" y="90.5" width="183" height="366"/><rect id="C121" class="cls-1" x="470.5" y="273.5" width="325" height="183"/><rect id="C122" class="cls-1" x="470.5" y="90.5" width="114" height="183"/><rect id="C124" class="cls-1" x="584.5" y="90.5" width="102" height="183"/><rect id="C126" class="cls-1" x="686.5" y="90.5" width="109" height="183"/><rect id="EntreeP" class="cls-1" x="795.5" y="90.5" width="116" height="366"/><rect id="EntreeDroite" class="cls-1" x="1503.5" y="1.5" width="101" height="455"/><rect id="C131" class="cls-1" x="911.5" y="1.5" width="278" height="455"/><rect id="C133" class="cls-1" x="1189.5" y="1.5" width="314" height="455"/></g><g id="Textes"><text class="cls-2" transform="translate(88 194)">C<tspan class="cls-3" x="21.67" y="0">1</tspan><tspan x="36.12" y="0">12</tspan></text><text class="cls-2" transform="translate(88 378)">C<tspan class="cls-3" x="21.67" y="0">11</tspan><tspan x="50.58" y="0">1</tspan></text><text class="cls-2" transform="translate(331.48 263)">Couloir<tspan x="-29.17" y="36">Distributeur</tspan></text><text class="cls-2" transform="translate(492.14 194)">C122</text><text class="cls-2" transform="translate(598.14 192)">C124</text><text class="cls-2" transform="translate(702.14 192)">C126</text><text class="cls-2" transform="translate(600.14 378)">C121</text><text class="cls-4" transform="translate(815.31 263)">Entrée <tspan x="-14" y="28.8">Principale</tspan></text><text class="cls-2" transform="translate(1008.14 263)">C131</text><text class="cls-2" transform="translate(1311.14 263)">C133</text><text class="cls-4" transform="translate(1518.64 263)">Entrée</text></g></svg>